<svg version="1" xmlns="http://www.w3.org/2000/svg" width="933.333" height="933.333" viewBox="0 0 700.000000 700.000000"><path d="M205 165.7c-36.7 2.5-69.6 9.2-90.7 18.3l-5.3 2.2v16.6l-8.2 2.8c-4.6 1.4-9.5 3.3-11 4.1l-2.8 1.4v162c0 129.3.3 162 1.3 161.6 31.7-14 75-21.1 128.2-21.1 44.3-.1 77.3 4.1 119.8 15.1l13.7 3.5 9.3-3c19.1-6.3 41.8-10.9 68.2-13.8 22.2-2.4 70.9-2.5 92.5-.1 29.1 3.3 64.7 10.2 84 16.3 4.1 1.3 7.8 2.4 8.3 2.4.4 0 .7-72.8.7-161.9V210.3l-7.2-2.1c-4-1.2-8.9-2.5-10.8-3l-3.5-.8-.5-9.4-.5-9.3-5.5-1.9c-15.8-5.4-42.7-11.4-65.5-14.7-40.8-5.9-84.8-5.2-124.2 2-12.3 2.2-33 7.6-40.6 10.6l-4.9 1.9-9.6-2.8c-23.1-6.7-56.8-12.7-83.1-14.8-12.3-.9-40.9-1.1-52.1-.3zm59.1 12.8c23.1 2.2 54.4 8 72.8 13.5l7.1 2.1v299.6l-10-2.8c-5.5-1.5-16.9-4.2-25.2-5.8-34.5-6.9-54.2-8.6-92.6-7.8-35.4.7-64.4 3.8-87.6 9.2-3.4.8-6.4 1.5-6.9 1.5-.4 0-.6-66.3-.5-147.3l.3-147.2 10-3.3c16-5.3 44-10.4 69-12.5 11.6-1 49.8-.5 63.6.8zm248.4 1.4c20.1 2.7 51 9.2 63.3 13.2l3.2 1.1v147.5c0 137.4-.1 147.5-1.7 146.9-3-1.2-35.5-6.4-49.3-8-27.1-3.1-44.3-3.9-72-3.3-36.5.7-60 3.9-88.3 12l-11.7 3.4V193.9l2.3-.8 2.2-.8.3 120.3c.1 66.2.4 120.4.7 120.4.3 0 4-2.9 8.1-6.5l7.6-6.4 7.7 6.4c4.2 3.6 7.9 6.5 8.4 6.5.4 0 .7-56.2.7-124.9V183.2l6.3-1.1c6.1-1.1 26.8-3.7 35.7-4.5 2.5-.2 17.3-.2 33-.1 21.8.3 32 .8 43.5 2.4z"/><path d="M199.5 237.1c-10.3.8-40.6 4.7-41.3 5.4-.5.5.9 9 1.7 10.3.5.9 2.1 1 6.2.2 31.5-6.1 82.2-6.5 117.9-1 6.3.9 11.6 1.7 11.7 1.5.5-.3 2.3-10.8 2-11.2-.8-.7-28.7-4.2-41.6-5.2-15.3-1.2-40.3-1.2-56.6 0zM215 263.6c-22.6 1.2-54.9 4.9-56.5 6.6-.7.7.4 8.1 1.4 9.7.6.9 4.1.7 14.7-.8 27.5-4 61.7-4.9 88.5-2.5l6.6.7.5-5.4c.3-3.1.1-5.7-.4-6-1.9-1.2-42.8-2.9-54.8-2.3zM201 291.7c-8.5.6-30.5 3.3-36.8 4.4l-6.3 1.1.6 4.2c1 6.7 1.5 7.7 3.3 7.2 9.8-3 41.2-5.6 67.2-5.6 22.7 0 40.2 1.3 62.6 4.6 4.6.7 4.6.7 5.9-6.8.5-3.3.3-3.8-1.7-4.3-4.8-1-24.7-3.5-36.3-4.5-11-.9-47.9-1.1-58.5-.3zM200 319c-12.4 1-39.7 4.7-41.3 5.7-.5.3-.6 2.2-.2 4.2 1.2 7.1 1.4 7.4 4.9 6.6 20.4-4.3 68.8-6.7 93-4.6 7.1.6 13 1 13.1.9.1-.2.5-2.8.8-5.9l.5-5.6-6.1-.7c-10.8-1.1-52.8-1.5-64.7-.6zM209.3 346c-15.8.7-47.9 4.5-50.2 6-.8.4-.9 2.1-.5 4.7 1 6.7.9 6.7 12.5 4.9 37.1-5.6 75.6-5.8 111.3-.5 7.1 1 13.2 1.7 13.4 1.4.9-.9 2.2-9.9 1.5-10.6-1.1-.9-20-3.6-34.8-4.8-18.2-1.5-35.3-1.9-53.2-1.1zM439 237.1c-11.3.9-40.1 4.7-40.9 5.5-.2.2 0 2.7.5 5.6 1.1 6.1-.2 5.9 16.4 3.4 29.3-4.3 72.3-4.6 102-.6 8.5 1.1 16.2 2.3 17.1 2.6 1.4.4 1.9-.6 2.7-5.3.5-3.2.9-5.9.8-6-.1-.1-6.4-1.1-14.1-2.2-27.3-3.9-57.3-5-84.5-3zM453.5 263.7c-16.5.6-47.3 4-53.8 6-1.6.4-1.8 1.1-1.2 5.1.4 2.6 1 5.1 1.4 5.5.4.4 7-.1 14.7-1.3 22.9-3.3 51.1-4.6 74.1-3.2 10.8.7 20 .9 20.4.5.4-.5.9-2.9 1.1-5.6.2-3.6-.1-4.8-1.2-5.2-1.9-.6-41.2-2.6-45.4-2.3-1.7.1-6.2.3-10.1.5zM440 291.6c-9 .8-29.7 3.4-35.8 4.5l-6.4 1.1.7 4.6c.9 6.1 1.5 7.4 3.1 6.8.8-.3 8.3-1.6 16.7-2.8 13.5-2 19-2.3 49.7-2.3 27.4 0 37 .4 46.5 1.7 6.6 1 14.1 2.1 16.7 2.4l4.7.7.6-3.9c.4-2.2.9-4.6 1.1-5.5.6-2.1-.4-2.3-19.7-5-11.9-1.6-22-2.1-44.4-2.4-15.9-.1-31-.1-33.5.1z"/></svg>