<?xml version="1.0" encoding="UTF-8" standalone="no"?>
<!DOCTYPE svg PUBLIC "-//W3C//DTD SVG 1.1//EN" "http://www.w3.org/Graphics/SVG/1.1/DTD/svg11.dtd">
<svg width="100%" height="100%" viewBox="0 0 400 250" version="1.1" xmlns="http://www.w3.org/2000/svg" xmlns:xlink="http://www.w3.org/1999/xlink" xml:space="preserve" xmlns:serif="http://www.serif.com/" style="fill-rule:evenodd;clip-rule:evenodd;stroke-linejoin:round;stroke-miterlimit:2;">
    <g transform="matrix(1.18553,2.84677e-17,-2.63175e-17,-0.881089,-74.2118,264.327)">
        <path d="M400,126.283C400,71.087 324.408,26.275 231.299,26.275C138.19,26.275 62.598,71.087 62.598,126.283C62.598,160.308 91.78,191.999 140.058,210.402L101.507,300L187.529,222.866C201.803,225.139 216.519,226.291 231.299,226.291C324.408,226.291 400,181.479 400,126.283Z" style="fill:white;"/>
        <path d="M400,126.283C400,71.087 324.408,26.275 231.299,26.275C138.19,26.275 62.598,71.087 62.598,126.283C62.598,160.308 91.78,191.999 140.058,210.402L101.507,300L187.529,222.866C201.803,225.139 216.519,226.291 231.299,226.291C324.408,226.291 400,181.479 400,126.283ZM397.472,126.283C397.472,105.203 385.678,85.956 366.13,70.152C335.719,45.564 286.624,29.677 231.299,29.677C175.974,29.677 126.879,45.564 96.468,70.152C76.92,85.956 65.126,105.203 65.126,126.283C65.126,139.088 69.603,151.49 77.782,162.933C90.584,180.844 112.309,196.288 140.747,207.129C141.498,207.415 142.108,208.151 142.401,209.124C142.694,210.097 142.637,211.198 142.246,212.107L109.128,289.078C109.128,289.078 186.127,220.035 186.127,220.035C186.627,219.586 187.229,219.392 187.826,219.487C202.003,221.745 216.619,222.889 231.299,222.889C286.624,222.889 335.719,207.002 366.13,182.414C385.678,166.61 397.472,147.363 397.472,126.283Z" style="fill:rgb(255,0,0);"/>
    </g>
    <g transform="matrix(1,0,0,1,78.9234,182.941)">
        <text x="0px" y="0px" style="font-family:'ArialMT', 'Arial', sans-serif;font-size:91.975px;fill:rgb(255,0,0);">OBS!!</text>
    </g>
</svg>
