<svg version="1" xmlns="http://www.w3.org/2000/svg" width="933.333" height="933.333" viewBox="0 0 700.000000 700.000000"><path d="M210.5 165.6c-42 3.1-69.9 8.3-93.3 17.4l-8.1 3.1-.3 8.6-.3 8.5-10.5 3.7-10.5 3.7-.3 161.7c-.1 98.9.2 161.7.7 161.7.5 0 4.3-1.4 8.5-3 15.3-6.2 43.2-12.3 71.6-15.7 18.3-2.2 76.4-2.5 93.5-.5 28.3 3.3 52 7.6 75.4 13.7l13.4 3.5 6.8-2.5c15.4-5.5 41.4-11 67.9-14.2 18.3-2.2 76.4-2.5 93.5-.5 33.2 3.9 72.3 11.6 89.2 17.6 2.2.8 4.4 1.2 4.7.9.3-.4.6-73 .6-161.5V211l-2.7-1.1c-1.6-.6-6.5-2-11-3.2l-8.3-2.2V186.2l-7.7-2.6c-28-9.1-61.5-15.2-98.3-17.7-41.8-2.9-97.5 3.9-128.7 15.6-6.3 2.4-6.9 2.5-11.2 1-16.2-5.3-50.5-12.1-75.1-15-13.2-1.5-49.5-2.7-59.5-1.9zm53 12.5c21 1.8 66.1 10.4 78 14.9l2.5 1v150.1c0 142.6-.1 150.1-1.7 149.4-9.3-3.6-47.8-11.4-69.8-14.1-41-4.9-105.9-1.5-143.9 7.5-4.2 1-7.8 1.6-8.1 1.3-.3-.3-.5-66.6-.5-147.4V194l3.8-1.6c11-4.6 39.3-10.9 60.7-13.4 23.3-2.8 52-3.1 79-.9zm234.5 0c22.6 2 55.3 8 74.8 13.8l7.2 2.2v147.4c0 81.1-.3 147.5-.7 147.5-.5 0-5.5-.9-11.3-2-34.2-6.7-63.6-9.4-101.5-9.4-46-.1-68.4 3-109.9 15.2-1.9.5-1.9-2-1.2-149.3.4-82.5.8-150 .9-150.1.1-.1 1.2-.5 2.4-.8l2.3-.7.2 120.5.3 120.5 7.8-6.5c6.8-5.8 8-6.4 9.5-5.2.9.7 4.6 3.7 8.2 6.7l6.5 5.4.3-125.1.2-125 5-1.1c24.4-5.2 65.7-6.9 99-4z"/><path d="M205 237.1c-13.8.8-42.3 4.3-45.5 5.5-.9.4-1.3 1.4-1.1 2.3.3.9.8 3.3 1.2 5.4.5 2.9 1 3.6 2.3 3.3 3-1 21.6-3.5 34.3-4.7 16.5-1.5 64.4-.6 78.8 1.4 5.8.9 12.8 1.9 15.7 2.2l5.2.7.6-3.8c.4-2.2.7-4.6.8-5.4.5-4.5-59.4-9-92.3-6.9zM194.5 265.1c-10.5 1-35.4 4.5-36 5.1-.3.3 1.3 9.9 1.8 10.4.1.1 5.9-.6 12.7-1.6 25.6-3.9 61.3-5.1 85-3 11.8 1.1 12 1 12-5.6 0-3.7-.3-4.2-2.7-4.8-4.7-1.1-62.2-1.5-72.8-.5zM199.5 292c-13.6 1.1-39.8 4.9-40.7 5.8-.8.8 1.1 10.2 2.1 10.2.3 0 6.9-.9 14.6-2 23.1-3.3 51.6-4.5 73.3-3.1 16.9 1 34.2 2.9 43.5 4.6l3.5.7.9-5.4c.5-2.9.9-5.4.8-5.5-.1-.3-19.8-3.2-29.5-4.3-13-1.5-55.1-2.1-68.5-1zM212.5 318.6c-17.9.9-50.9 4.8-53.4 6.3-.6.4-.5 2.5.1 5.9.8 4.1 1.4 5.1 2.7 4.8 3.2-.9 22.8-3.6 33.6-4.6 12.8-1.2 54.6-1.2 65.5-.1 8.7.9 9.1.6 8.8-5.9l-.3-4.5-7-.6c-9.7-.9-41.5-1.7-50-1.3zM195.3 347.1c-9.4.8-36.3 4.6-36.9 5.2-.3.3 1.5 9.9 2 10.4.2.2 3.3-.1 6.7-.7 23.3-4.3 63.2-6.1 88.4-4.1 14.6 1.2 35.3 3.7 38.7 4.7 1.3.4 1.8-.5 2.5-4.8.8-4.7.6-5.4-1-6-1-.4-8.9-1.7-17.5-2.9-17.8-2.4-64.7-3.5-82.9-1.8zM444.5 237.1c-13.5.8-41.9 4.4-45 5.5-1.8.7-1.7.2-.4 6.2l1 4.9 4.4-.8c16-3 30.3-4.2 56.1-4.6 28.4-.5 40.4.1 63.2 3.3 6.2.9 11.5 1.5 11.7 1.3.2-.3.7-2.7 1-5.5l.7-5.1-7.8-1.2c-26.4-4-60.7-5.6-84.9-4zM434 265.1c-11.3 1-34.9 4.4-35.6 5.1-.4.5 1.1 9.6 1.7 10.3.3.2 6.1-.5 12.9-1.5 25.9-3.9 61.3-5.2 84.4-3 6 .6 11 .9 11.3.7.2-.2.6-2.7 1-5.4l.5-5-3.3-.7c-5.8-1.1-61.9-1.5-72.9-.5zM446 291.7c-11.8.8-27.5 2.5-37.3 4l-10.8 1.7.6 3.6c1.4 7.9.8 7.5 10 6 34.6-5.8 75.9-6.2 112.9-1 7.7 1.1 14.1 1.9 14.2 1.7.2-.1.6-2.5.9-5.4.8-6 2.2-5.3-16.5-7.8-23.1-3-54.2-4.2-74-2.8z"/></svg>